<svg xmlns="http://www.w3.org/2000/svg" xmlns:xlink="http://www.w3.org/1999/xlink" width="1071" zoomAndPan="magnify" viewBox="0 0 803.25 741.749978" height="989" preserveAspectRatio="xMidYMid meet" version="1.0"><defs><g/></defs><g fill="#ffffcc" fill-opacity="1"><g transform="translate(140.41174, 406.974386)"><g><path d="M 125.671875 44.890625 C 104.035156 37.859375 85.992188 26.789062 71.546875 11.6875 C 57.109375 -3.414062 47.59375 -20.941406 43 -40.890625 C 38.414062 -60.847656 39.546875 -81.347656 46.390625 -102.390625 C 53.234375 -123.429688 64.375 -140.664062 79.8125 -154.09375 C 95.257812 -167.53125 113.265625 -176.109375 133.828125 -179.828125 C 154.398438 -183.546875 175.609375 -181.851562 197.453125 -174.75 C 215.867188 -168.757812 231.460938 -160.109375 244.234375 -148.796875 C 257.003906 -137.492188 266.46875 -124.125 272.625 -108.6875 L 231.578125 -89.8125 C 222.609375 -111.070312 207.5 -125.160156 186.25 -132.078125 C 173.101562 -136.347656 160.429688 -137.28125 148.234375 -134.875 C 136.046875 -132.46875 125.390625 -127.039062 116.265625 -118.59375 C 107.148438 -110.144531 100.453125 -99.347656 96.171875 -86.203125 C 91.890625 -73.054688 90.953125 -60.382812 93.359375 -48.1875 C 95.773438 -35.988281 101.203125 -25.328125 109.640625 -16.203125 C 118.085938 -7.078125 128.882812 -0.378906 142.03125 3.890625 C 163.28125 10.804688 183.816406 8.203125 203.640625 -3.921875 L 225.75 35.484375 C 211.613281 44.535156 196.003906 49.863281 178.921875 51.46875 C 161.835938 53.070312 144.085938 50.878906 125.671875 44.890625 Z M 125.671875 44.890625 "/></g></g></g><g fill="#ffffcc" fill-opacity="1"><g transform="translate(286.882689, 570.663275)"><g><path d="M 67.671875 3.828125 C 52.554688 3.828125 38.664062 1.007812 26 -4.625 C 13.34375 -10.269531 2.972656 -18.300781 -5.109375 -28.71875 L 23.625 -63.203125 C 35.75 -46.816406 49.578125 -38.625 65.109375 -38.625 C 86.171875 -38.625 96.703125 -50.960938 96.703125 -75.640625 L 96.703125 -181.921875 L 18.1875 -181.921875 L 18.1875 -223.421875 L 148.09375 -223.421875 L 148.09375 -78.515625 C 148.09375 -51.066406 141.28125 -30.476562 127.65625 -16.75 C 114.039062 -3.03125 94.046875 3.828125 67.671875 3.828125 Z M 67.671875 3.828125 "/></g></g></g><g fill="#ffffcc" fill-opacity="1"><g transform="translate(441.608657, 409.325156)"><g><path d="M 26.5 -55.984375 C 28.738281 -59.109375 31.753906 -61.46875 35.546875 -63.0625 C 39.347656 -64.65625 43.722656 -65.453125 48.671875 -65.453125 L 48.671875 -48.203125 C 46.597656 -48.359375 45.203125 -48.4375 44.484375 -48.4375 C 39.128906 -48.4375 34.929688 -46.9375 31.890625 -43.9375 C 28.847656 -40.9375 27.328125 -36.441406 27.328125 -30.453125 L 27.328125 0 L 8.625 0 L 8.625 -64.5 L 26.5 -64.5 Z M 26.5 -55.984375 "/></g></g></g><g fill="#ffffcc" fill-opacity="1"><g transform="translate(493.280436, 409.325156)"><g><path d="M 8.625 -64.5 L 27.328125 -64.5 L 27.328125 0 L 8.625 0 Z M 17.984375 -73.375 C 15.023438 -73.375 12.609375 -74.332031 10.734375 -76.25 C 8.859375 -78.164062 7.921875 -80.601562 7.921875 -83.5625 C 7.921875 -86.4375 8.859375 -88.832031 10.734375 -90.75 C 12.609375 -92.675781 15.023438 -93.640625 17.984375 -93.640625 C 20.941406 -93.640625 23.359375 -92.675781 25.234375 -90.75 C 27.117188 -88.832031 28.0625 -86.4375 28.0625 -83.5625 C 28.0625 -80.601562 27.117188 -78.164062 25.234375 -76.25 C 23.359375 -74.332031 20.941406 -73.375 17.984375 -73.375 Z M 17.984375 -73.375 "/></g></g></g><g fill="#ffffcc" fill-opacity="1"><g transform="translate(529.366755, 409.325156)"><g><path d="M 61.75 -14.390625 L 61.75 0 L 4.203125 0 L 4.203125 -11.265625 L 37.046875 -50.109375 L 5.03125 -50.109375 L 5.03125 -64.5 L 60.671875 -64.5 L 60.671875 -53.234375 L 27.8125 -14.390625 Z M 61.75 -14.390625 "/></g></g></g><g fill="#ffffcc" fill-opacity="1"><g transform="translate(594.466006, 409.325156)"><g><path d="M 61.75 -14.390625 L 61.75 0 L 4.203125 0 L 4.203125 -11.265625 L 37.046875 -50.109375 L 5.03125 -50.109375 L 5.03125 -64.5 L 60.671875 -64.5 L 60.671875 -53.234375 L 27.8125 -14.390625 Z M 61.75 -14.390625 "/></g></g></g><g fill="#ffffcc" fill-opacity="1"><g transform="translate(659.565258, 409.325156)"><g><path d="M 8.625 -88.953125 L 27.328125 -88.953125 L 27.328125 0 L 8.625 0 Z M 8.625 -88.953125 "/></g></g></g><g fill="#ffffcc" fill-opacity="1"><g transform="translate(695.651566, 409.325156)"><g><path d="M 72.65625 -64.5 L 43.515625 3.953125 C 40.554688 11.390625 36.898438 16.625 32.546875 19.65625 C 28.191406 22.695312 22.9375 24.21875 16.78125 24.21875 C 13.425781 24.21875 10.109375 23.695312 6.828125 22.65625 C 3.554688 21.613281 0.878906 20.175781 -1.203125 18.34375 L 5.640625 5.03125 C 7.078125 6.3125 8.734375 7.3125 10.609375 8.03125 C 12.484375 8.75 14.34375 9.109375 16.1875 9.109375 C 18.738281 9.109375 20.8125 8.488281 22.40625 7.25 C 24.007812 6.007812 25.453125 3.953125 26.734375 1.078125 L 26.96875 0.484375 L -0.953125 -64.5 L 18.34375 -64.5 L 36.453125 -20.734375 L 54.671875 -64.5 Z M 72.65625 -64.5 "/></g></g></g><g fill="#ffffcc" fill-opacity="1"><g transform="translate(443.855718, 553.190816)"><g><path d="M 34.640625 -65.453125 C 44.640625 -65.453125 52.316406 -63.070312 57.671875 -58.3125 C 63.023438 -53.5625 65.703125 -46.394531 65.703125 -36.8125 L 65.703125 0 L 48.203125 0 L 48.203125 -8.03125 C 44.679688 -2.039062 38.125 0.953125 28.53125 0.953125 C 23.570312 0.953125 19.273438 0.113281 15.640625 -1.5625 C 12.003906 -3.238281 9.226562 -5.554688 7.3125 -8.515625 C 5.394531 -11.472656 4.4375 -14.828125 4.4375 -18.578125 C 4.4375 -24.578125 6.691406 -29.296875 11.203125 -32.734375 C 15.722656 -36.171875 22.695312 -37.890625 32.125 -37.890625 L 47 -37.890625 C 47 -41.960938 45.757812 -45.097656 43.28125 -47.296875 C 40.800781 -49.492188 37.082031 -50.59375 32.125 -50.59375 C 28.6875 -50.59375 25.3125 -50.050781 22 -48.96875 C 18.6875 -47.894531 15.867188 -46.4375 13.546875 -44.59375 L 6.828125 -57.671875 C 10.347656 -60.148438 14.566406 -62.066406 19.484375 -63.421875 C 24.398438 -64.773438 29.453125 -65.453125 34.640625 -65.453125 Z M 33.203125 -11.625 C 36.398438 -11.625 39.238281 -12.363281 41.71875 -13.84375 C 44.195312 -15.320312 45.957031 -17.5 47 -20.375 L 47 -26.96875 L 34.171875 -26.96875 C 26.492188 -26.96875 22.65625 -24.453125 22.65625 -19.421875 C 22.65625 -17.023438 23.59375 -15.125 25.46875 -13.71875 C 27.351562 -12.320312 29.929688 -11.625 33.203125 -11.625 Z M 33.203125 -11.625 "/></g></g></g><g fill="#ffffcc" fill-opacity="1"><g transform="translate(517.826683, 553.190816)"><g><path d="M 91.234375 -65.453125 C 99.304688 -65.453125 105.71875 -63.070312 110.46875 -58.3125 C 115.226562 -53.5625 117.609375 -46.429688 117.609375 -36.921875 L 117.609375 0 L 98.90625 0 L 98.90625 -34.046875 C 98.90625 -39.160156 97.847656 -42.976562 95.734375 -45.5 C 93.617188 -48.019531 90.601562 -49.28125 86.6875 -49.28125 C 82.289062 -49.28125 78.8125 -47.859375 76.25 -45.015625 C 73.6875 -42.179688 72.40625 -37.96875 72.40625 -32.375 L 72.40625 0 L 53.71875 0 L 53.71875 -34.046875 C 53.71875 -44.203125 49.640625 -49.28125 41.484375 -49.28125 C 37.171875 -49.28125 33.734375 -47.859375 31.171875 -45.015625 C 28.609375 -42.179688 27.328125 -37.96875 27.328125 -32.375 L 27.328125 0 L 8.625 0 L 8.625 -64.5 L 26.5 -64.5 L 26.5 -57.0625 C 28.894531 -59.78125 31.828125 -61.859375 35.296875 -63.296875 C 38.773438 -64.734375 42.59375 -65.453125 46.75 -65.453125 C 51.3125 -65.453125 55.429688 -64.550781 59.109375 -62.75 C 62.785156 -60.957031 65.742188 -58.34375 67.984375 -54.90625 C 70.617188 -58.269531 73.953125 -60.867188 77.984375 -62.703125 C 82.023438 -64.535156 86.441406 -65.453125 91.234375 -65.453125 Z M 91.234375 -65.453125 "/></g></g></g></svg>